<?xml version="1.0" standalone="no"?>
<!DOCTYPE svg PUBLIC "-//W3C//DTD SVG 20010904//EN"
 "http://www.w3.org/TR/2001/REC-SVG-20010904/DTD/svg10.dtd">
<svg version="1.0" xmlns="http://www.w3.org/2000/svg"
 width="142.000000pt" height="47.000000pt" viewBox="0 0 142.000000 47.000000"
 preserveAspectRatio="xMidYMid meet">

<g transform="translate(0.000000,47.000000) scale(0.100000,-0.100000)"
fill="#000000" stroke="none">
<path d="M852 298 l3 -173 97 0 c83 0 101 3 125 21 41 30 45 96 8 134 -25 27
-25 27 -5 45 20 18 27 66 14 100 -12 31 -59 45 -154 45 l-90 0 2 -172z m218
132 c27 -27 25 -66 -5 -95 -22 -23 -32 -25 -110 -25 l-85 0 0 70 0 70 90 0
c77 0 93 -3 110 -20z m5 -160 c33 -31 33 -73 0 -105 -22 -23 -32 -25 -115 -25
l-90 0 0 73 c0 41 3 77 8 81 4 5 44 6 89 4 70 -4 87 -8 108 -28z"/>
<path d="M1150 295 c0 -110 4 -175 10 -175 6 0 10 37 10 90 l0 90 115 0 115 0
0 -90 c0 -53 4 -90 10 -90 6 0 10 65 10 175 0 110 -4 175 -10 175 -6 0 -10
-33 -10 -80 l0 -80 -115 0 -115 0 0 80 c0 47 -4 80 -10 80 -6 0 -10 -65 -10
-175z"/>
</g>
</svg>
